{"title":"MTV Roadies X1 Season 11 - Episode 1 - Delhi Auditions HQ 480p","uid":9522869,"size":340256263,"categoryP":"video","categoryS":"tv_shows","magnet":"?xt=urn:btih:a7159051e7c00710f09311c6a665717c2aa52f46&amp;dn=MTV+Roadies+X1+Season+11+-+Episode+1+-+Delhi+Auditions+HQ+480p&amp;tr=udp%3A%2F%2Ftracker.openbittorrent.com%3A80&amp;tr=udp%3A%2F%2Fopen.demonii.com%3A1337&amp;tr=udp%3A%2F%2Ftracker.coppersurfer.tk%3A6969&amp;tr=udp%3A%2F%2Fexodus.desync.com%3A6969","seeders":1,"leechers":0,"uploader":"ashish.p","files":1,"time":1390675704,"description":"General \nComplete name : E:MTV Roadies X1 Season 11 - Episode 1 - Delhi Auditions HQ 480p.MP4 \nFormat : MPEG-4 \nFormat profile : Base Media \nCodec ID : isom \nFile size : 324 MiB \nDuration : 45mn 43s \nOverall bit rate mode : Variable \nOverall bit rate : 992 Kbps \nEncoded date : UTC 2014-01-23 10:08:19 \nTagged date : UTC 2014-01-23 10:08:19 \n\nVideo \nID : 1 \nFormat : AVC \nFormat/Info : Advanced Video Codec \nFormat profile : &lt;a class=&quot;__cf_email__&quot; href=&quot;/cdn-cgi/l/email-protection&quot; data-cfemail=&quot;d79ab6beb9979be4f9e7&quot;&gt;[email&amp;#160;protected]&lt;/a&gt;&lt;script cf-hash='f9e31' type=&quot;text/javascript&quot;&gt;\n/* &lt;![CDATA[ */!function(){try{var t=&quot;currentScript&quot;in document?document.currentScript:function(){for(var t=document.getElementsByTagName(&quot;script&quot;),e=t.length;e--;)if(t[e].getAttribute(&quot;cf-hash&quot;))return t[e]}();if(t&amp;&amp;t.previousSibling){var e,r,n,i,c=t.previousSibling,a=c.getAttribute(&quot;data-cfemail&quot;);if(a){for(e=&quot;&quot;,r=parseInt(a.substr(0,2),16),n=2;a.length-n;n+=2)i=parseInt(a.substr(n,2),16)^r,e+=String.fromCharCode(i);e=document.createTextNode(e),c.parentNode.replaceChild(e,c)}}}catch(u){}}();/* ]]&gt; */&lt;/script&gt; \nFormat settings, CABAC : Yes \nFormat settings, ReFrames : 3 frames \nCodec ID : avc1 \nCodec ID/Info : Advanced Video Coding \nDuration : 45mn 43s \nDuration_LastFrame : -7ms \nBit rate : 863 Kbps \nWidth : 854 pixels \nHeight : 480 pixels \nDisplay aspect ratio : 16:9 \nFrame rate mode : Constant \nFrame rate : 25.000 fps \nColor space : YUV \nChroma subsampling : 4:2:0 \nBit depth : 8 bits \nScan type : Progressive \nBits/(Pixel*Frame) : 0.084 \nStream size : 282 MiB (87%) \nEncoded date : UTC 2014-01-23 10:08:19 \nTagged date : UTC 2014-01-23 10:08:19 \n\nAudio \nID : 2 \nFormat : AAC \nFormat/Info : Advanced Audio Codec \nFormat profile : LC \nCodec ID : 40 \nDuration : 45mn 43s \nBit rate mode : Variable \nBit rate : 126 Kbps \nChannel(s) : 2 channels \nChannel positions : Front: L R \nSampling rate : 44.1 KHz \nCompression mode : Lossy \nStream size : 41.1 MiB (13%) \nEncoded date : UTC 2014-01-23 10:08:40 \nTagged date : UTC 2014-01-23 10:08:40 \n","torrent":{"xt":"urn:btih:a7159051e7c00710f09311c6a665717c2aa52f46","amp;dn":"MTV+Roadies+X1+Season+11+-+Episode+1+-+Delhi+Auditions+HQ+480p","amp;tr":["udp%3A%2F%2Ftracker.openbittorrent.com%3A80","udp%3A%2F%2Fopen.demonii.com%3A1337","udp%3A%2F%2Ftracker.coppersurfer.tk%3A6969","udp%3A%2F%2Fexodus.desync.com%3A6969"],"infoHash":"a7159051e7c00710f09311c6a665717c2aa52f46","infoHashBuffer":{"type":"Buffer","data":[167,21,144,81,231,192,7,16,240,147,17,198,166,101,113,124,42,165,47,70]},"announce":[],"urlList":[]}}